<svg width="28" height="24" viewBox="0 0 28 24" fill="none" xmlns="http://www.w3.org/2000/svg">
<path d="M2 15.0004V17.4001C2 18.8936 2 19.6398 2.29065 20.2102C2.54631 20.712 2.95396 21.1207 3.45573 21.3764C4.0256 21.6668 4.77199 21.6668 6.26255 21.6668H26.0003M2 15.0004V1.66675M2 15.0004L7.13786 10.7188L7.14211 10.7154C8.07155 9.94089 8.53718 9.55287 9.04206 9.39526C9.63849 9.20908 10.2809 9.23853 10.8581 9.47795C11.3473 9.68091 11.7763 10.1099 12.6343 10.9679L12.643 10.9765C13.5143 11.8479 13.9511 12.2847 14.4482 12.4872C15.0365 12.7269 15.6914 12.7475 16.2943 12.5475C16.8054 12.378 17.2723 11.9701 18.2057 11.1534L26 4.33342" stroke="#E1251B" stroke-width="3.02222" stroke-linecap="round" stroke-linejoin="round"/>
</svg>
