<svg width="28" height="26" viewBox="0 0 28 26" fill="none" xmlns="http://www.w3.org/2000/svg">
<path d="M14 5.33333V8.66667M14 5.33333C14 3.49238 15.4924 2 17.3333 2C19.1743 2 20.6667 3.49238 20.6667 5.33333C20.6667 7.17428 19.1743 8.66667 17.3333 8.66667M14 5.33333C14 3.49238 12.5076 2 10.6667 2C8.82572 2 7.33333 3.49238 7.33333 5.33333C7.33333 7.17428 8.82572 8.66667 10.6667 8.66667M14 8.66667H17.3333M14 8.66667H10.6667M14 8.66667V16.6667M17.3333 8.66667H21.7336C23.2271 8.66667 23.9728 8.66667 24.5432 8.95732C25.045 9.21298 25.454 9.62063 25.7096 10.1224C26 10.6923 26 11.4387 26 12.9292V16.6667M10.6667 8.66667H6.26693C4.77345 8.66667 4.02616 8.66667 3.45573 8.95732C2.95396 9.21298 2.54631 9.62063 2.29065 10.1224C2 10.6928 2 11.4401 2 12.9336V16.6667M2 16.6667V20.4003C2 21.8937 2 22.6401 2.29065 23.2105C2.54631 23.7123 2.95396 24.1206 3.45573 24.3763C4.0256 24.6667 4.77199 24.6667 6.26255 24.6667H14M2 16.6667H14M14 16.6667V24.6667M14 16.6667H26M14 24.6667H21.7375C23.228 24.6667 23.9733 24.6667 24.5432 24.3763C25.045 24.1206 25.454 23.7123 25.7096 23.2105C26 22.6406 26 21.8953 26 20.4048V16.6667" stroke="#E1251B" stroke-width="2.66667" stroke-linecap="round" stroke-linejoin="round"/>
</svg>
