<svg width="16" height="16" viewBox="0 0 16 16" fill="none" xmlns="http://www.w3.org/2000/svg">
<path d="M2 14.6667H14" stroke="#1C274C" stroke-width="1.5" stroke-linecap="round" stroke-linejoin="round"/>
<path d="M2 7.33333C2 6.70479 2 6.39052 2.19526 6.19526C2.39052 6 2.70479 6 3.33333 6C3.96187 6 4.27614 6 4.4714 6.19526C4.66667 6.39052 4.66667 6.70479 4.66667 7.33333V11.3333C4.66667 11.9619 4.66667 12.2761 4.4714 12.4714C4.27614 12.6667 3.96187 12.6667 3.33333 12.6667C2.70479 12.6667 2.39052 12.6667 2.19526 12.4714C2 12.2761 2 11.9619 2 11.3333V7.33333Z" stroke="#1C274C" stroke-width="1.5"/>
<path d="M6.66699 4.66659C6.66699 4.03805 6.66699 3.72378 6.86225 3.52851C7.05752 3.33325 7.37179 3.33325 8.00033 3.33325C8.62886 3.33325 8.94313 3.33325 9.1384 3.52851C9.33366 3.72378 9.33366 4.03805 9.33366 4.66659V11.3333C9.33366 11.9618 9.33366 12.2761 9.1384 12.4713C8.94313 12.6666 8.62886 12.6666 8.00033 12.6666C7.37179 12.6666 7.05752 12.6666 6.86225 12.4713C6.66699 12.2761 6.66699 11.9618 6.66699 11.3333V4.66659Z" stroke="#1C274C" stroke-width="1.5"/>
<path d="M11.333 2.66659C11.333 2.03805 11.333 1.72378 11.5283 1.52851C11.7235 1.33325 12.0378 1.33325 12.6663 1.33325C13.2949 1.33325 13.6092 1.33325 13.8044 1.52851C13.9997 1.72378 13.9997 2.03805 13.9997 2.66659V11.3333C13.9997 11.9618 13.9997 12.2761 13.8044 12.4713C13.6092 12.6666 13.2949 12.6666 12.6663 12.6666C12.0378 12.6666 11.7235 12.6666 11.5283 12.4713C11.333 12.2761 11.333 11.9618 11.333 11.3333V2.66659Z" stroke="#1C274C" stroke-width="1.5"/>
</svg>
