<svg width="16" height="16" viewBox="0 0 16 16" fill="none" xmlns="http://www.w3.org/2000/svg">
<g clip-path="url(#clip0_2540_13285)">
<path d="M14.6663 14.6666H7.99967C4.85698 14.6666 3.28563 14.6666 2.30932 13.6903C1.33301 12.714 1.33301 11.1426 1.33301 7.99992V1.33325" stroke="#1C274C" stroke-width="1.5" stroke-linecap="round"/>
<path d="M12.6668 4.66675L10.5881 7.28435C10.2697 7.68531 10.1105 7.88579 9.92771 7.9835C9.64669 8.13373 9.31089 8.14104 9.0236 8.00317C8.83675 7.9135 8.66898 7.72013 8.33344 7.3334C7.9979 6.94668 7.83012 6.75332 7.64328 6.66365C7.35599 6.52578 7.0202 6.53308 6.73918 6.68331C6.55641 6.78102 6.3972 6.98149 6.07879 7.38244L4 10.0001" stroke="#1C274C" stroke-width="1.5" stroke-linecap="round"/>
</g>
<defs>
<clipPath id="clip0_2540_13285">
<rect width="16" height="16" fill="white"/>
</clipPath>
</defs>
</svg>
